<?xml version="1.0" encoding="UTF-8" standalone="no"?>
<svg
   xmlns:dc="http://purl.org/dc/elements/1.1/"
   xmlns:cc="http://creativecommons.org/ns#"
   xmlns:rdf="http://www.w3.org/1999/02/22-rdf-syntax-ns#"
   xmlns:svg="http://www.w3.org/2000/svg"
   xmlns="http://www.w3.org/2000/svg"
   xmlns:sodipodi="http://sodipodi.sourceforge.net/DTD/sodipodi-0.dtd"
   xmlns:inkscape="http://www.inkscape.org/namespaces/inkscape"
   width="1792"
   height="1792"
   viewBox="0 0 1792 1792"
   id="svg3384"
   version="1.1"
   inkscape:version="0.91 r"
   sodipodi:docname="magic_modified.svg">
  <metadata
     id="metadata3392">
    <rdf:RDF>
      <cc:Work
         rdf:about="">
        <dc:format>image/svg+xml</dc:format>
        <dc:type
           rdf:resource="http://purl.org/dc/dcmitype/StillImage" />
        <dc:title></dc:title>
      </cc:Work>
    </rdf:RDF>
  </metadata>
  <defs
     id="defs3390" />
  <sodipodi:namedview
     pagecolor="#ffffff"
     bordercolor="#666666"
     borderopacity="1"
     objecttolerance="10"
     gridtolerance="10"
     guidetolerance="10"
     inkscape:pageopacity="0"
     inkscape:pageshadow="2"
     inkscape:window-width="1920"
     inkscape:window-height="1028"
     id="namedview3388"
     showgrid="false"
     inkscape:zoom="0.33421844"
     inkscape:cx="2221.0987"
     inkscape:cy="1084.4484"
     inkscape:window-x="1920"
     inkscape:window-y="0"
     inkscape:window-maximized="1"
     inkscape:current-layer="svg3384" />
  <path
     d="M1254 581l293-293-107-107-293 293zm447-293q0 27-18 45l-1286 1286q-18 18-45 18t-45-18l-198-198q-18-18-18-45t18-45l1286-1286q18-18 45-18t45 18l198 198q18 18 18 45zm-1351-190l98 30-98 30-30 98-30-98-98-30 98-30 30-98zm350 162l196 60-196 60-60 196-60-196-196-60 196-60 60-196zm930 478l98 30-98 30-30 98-30-98-98-30 98-30 30-98zm-640-640l98 30-98 30-30 98-30-98-98-30 98-30 30-98z"
     id="path3386" />
  <path
     style="fill:#4e9ac0;fill-opacity:1"
     d="M 326.71357,1630.6113 C 311.89244,1624.2224 106.42265,1419.219 99.060995,1403.4754 91.625078,1387.573 91.651306,1363.079 99.119591,1348.7512 107.98078,1331.7511 1402.5643,38.9547 1416.4736,33.215814 c 14.8826,-6.140519 34.1126,-5.691101 48.717,1.13855 7.9164,3.702069 48.6001,42.425269 120.1713,114.380396 112.5382,113.14183 114.6318,115.69479 114.6883,139.85296 0.061,26.03971 32.7184,-7.87851 -657.9496,683.34877 -446.94481,447.30671 -654.87164,653.44071 -663.22271,657.50411 -14.52657,7.0682 -37.29745,7.5792 -52.16432,1.1707 z M 1402.358,435.54496 l 146.5884,-146.6113 -54.5974,-54.59738 -54.5974,-54.59739 -147.338,147.338 -147.338,147.33801 53.8084,53.87067 c 29.5945,29.62888 54.5007,53.87069 55.3469,53.87069 0.8463,0 67.5035,-65.97508 148.1271,-146.6113 z"
     id="path3405"
     inkscape:connector-curvature="0" />
  <path
     style="fill:#4e9ac0;fill-opacity:1"
     d="m 611.09232,476.75855 c -15.56006,-51.08372 -29.87125,-94.45972 -31.80263,-96.39112 -1.93139,-1.93137 -45.32527,-16.20129 -96.43085,-31.7109 -51.10558,-15.50961 -92.64362,-28.4749 -92.30676,-28.81177 0.33686,-0.33686 42.99745,-13.63919 94.80131,-29.56072 51.80386,-15.92155 94.93957,-30.14066 95.85713,-31.59803 0.91756,-1.45737 14.35425,-44.34568 29.85932,-95.30735 15.50507,-50.96167 29.05029,-91.020953 30.1005,-89.020632 1.05021,2.00032 14.43225,44.805672 29.73787,95.123002 l 27.8284,91.48606 91.5016,27.87686 c 50.32589,15.33227 93.13418,28.71904 95.12958,29.74838 1.99537,1.02934 -38.16657,14.63727 -89.24873,30.23984 -51.08219,15.60258 -93.97605,29.04153 -95.3197,29.86434 -1.34364,0.82282 -15.3805,43.80139 -31.19301,95.50796 -15.81252,51.70654 -29.08145,94.33178 -29.48652,94.72272 -0.40507,0.39097 -13.46745,-41.08492 -29.02751,-92.16864 z"
     id="path3407"
     inkscape:connector-curvature="0" />
  <path
     style="fill:#4e9ac0;fill-opacity:1"
     d="m 305.89678,204.4092 c -7.06099,-23.45017 -14.35417,-44.19992 -16.20706,-46.11054 -1.85289,-1.91062 -23.56135,-9.47388 -48.24103,-16.80725 l -44.87213,-13.3334 34.39994,-10.63149 c 18.91997,-5.84732 40.1131,-12.29529 47.09585,-14.32883 l 12.69591,-3.697335 10.25475,-33.193106 c 5.64012,-18.256207 11.93424,-38.958623 13.98695,-46.005371 2.05271,-7.046747 4.6289,-11.7592337 5.72486,-10.4721925 1.09597,1.2870405 7.80262,21.8718155 14.90367,45.7439425 l 12.911,43.403871 43.68705,13.191681 c 24.02787,7.25543 44.66547,14.0149 45.86133,15.02105 1.19585,1.00615 -18.32731,7.98518 -43.3848,15.50896 l -45.55908,13.67959 -13.46425,43.60568 c -7.40534,23.98312 -14.24962,44.38322 -15.20952,45.33356 -0.9599,0.95033 -7.52244,-17.45864 -14.58344,-40.90882 z"
     id="path3409"
     inkscape:connector-curvature="0" />
  <path
     style="fill:#4e9ac0;fill-opacity:1"
     d="m 946.32248,205.63635 c -7.26591,-24.12511 -14.38811,-45.21026 -15.8271,-46.85589 -1.43899,-1.64563 -23.08599,-9.22698 -48.10445,-16.84743 l -45.48809,-13.85539 38.87478,-12.14836 c 21.38113,-6.6816 42.51324,-13.03095 46.96024,-14.10968 7.2558,-1.76006 9.03766,-5.078662 17.36512,-32.341326 5.10381,-16.709009 11.69813,-37.785354 14.65405,-46.836321 l 5.37439,-16.4563031 10.68335,34.4086341 c 5.87584,18.924749 12.25419,39.794333 14.17412,46.376855 l 3.49077,11.96822 43.87184,13.223801 c 24.1295,7.27309 45.0806,13.87101 46.558,14.66205 1.4773,0.79103 -17.6528,7.6871 -42.5113,15.32458 -24.8586,7.63749 -45.92606,14.61496 -46.81659,15.5055 -0.89054,0.89054 -7.71256,21.62562 -15.16006,46.07796 -7.44749,24.45234 -13.84407,44.75313 -14.21461,45.11286 -0.37054,0.35974 -6.61855,-19.08465 -13.88446,-43.20976 z"
     id="path3411"
     inkscape:connector-curvature="0" />
  <path
     style="fill:#da9737;fill-opacity:1"
     d="m 1588.2962,852.48677 c -18.4134,-61.41835 -12.2029,-54.52608 -62.8361,-69.73412 -24.0973,-7.23779 -43.8132,-13.97256 -43.8132,-14.96615 0,-0.99359 20.0772,-7.79029 44.6161,-15.10379 l 44.6161,-13.29726 14.1786,-46.45 c 7.7982,-25.5475 14.4007,-46.76228 14.6722,-47.14396 0.2716,-0.38168 6.9142,20.48971 14.7615,46.38086 l 14.2677,47.07481 44.6301,13.33189 c 24.5465,7.33253 44.63,14.13969 44.63,15.12701 0,0.98731 -19.8163,7.81002 -44.0362,15.16156 -50.6678,15.37934 -43.0563,6.76212 -62.8153,71.11518 l -11.3452,36.95021 -11.5263,-38.44624 z"
     id="path3413"
     inkscape:connector-curvature="0" />
  <path
     style="fill:#da9737;fill-opacity:1"
     d="M 614.10899,482.08228 C 600.45425,438.07151 586.9233,396.64546 584.04021,390.02437 l -5.242,-12.03835 -43.10489,-13.99674 c -23.70768,-7.6982 -64.30842,-20.39301 -90.22384,-28.21069 -25.91543,-7.81768 -46.1118,-15.16473 -44.88083,-16.32679 1.23097,-1.16205 22.4345,-8.38483 47.11896,-16.05061 24.68445,-7.66578 65.12318,-20.59542 89.86383,-28.73252 l 44.983,-14.79472 11.27933,-36.6196 c 26.81177,-87.04739 45.03436,-142.837549 46.65462,-142.837549 1.44478,0 23.99417,71.370079 51.18128,161.991669 l 5.80866,19.36172 91.42389,27.97463 c 50.28313,15.38605 90.35408,29.0043 89.04658,30.26279 -1.30753,1.25848 -37.38435,13.2484 -80.17074,26.64428 -42.78639,13.39588 -82.19897,25.73534 -87.5835,27.42104 -12.17072,3.81019 -11.3994,1.94816 -42.58052,102.79118 -13.73858,44.43202 -25.81152,81.78723 -26.82875,83.0116 -1.01724,1.22438 -13.02157,-33.78266 -26.6763,-77.79343 z"
     id="path3415"
     inkscape:connector-curvature="0" />
  <path
     style="fill:#da9737;fill-opacity:1"
     d="m 947.57698,205.22391 c -6.16402,-20.09782 -13.09657,-39.50967 -15.40568,-43.13746 -3.06641,-4.81757 -14.89286,-9.99734 -43.86334,-19.21137 -21.81573,-6.93846 -40.66292,-13.45071 -41.88265,-14.47166 -1.21973,-1.02094 15.61058,-7.04549 37.40069,-13.38787 21.7901,-6.34239 41.85934,-13.69226 44.5983,-16.333058 2.73895,-2.640793 10.98679,-23.611103 18.32851,-46.600687 L 960.1014,10.28256 971.1219,46.097695 c 6.06128,19.698324 12.29367,39.893268 13.84976,44.877658 2.6888,8.612643 4.98229,9.712377 46.20034,22.153177 23.8542,7.19985 43.3712,13.46138 43.3712,13.9145 0,0.45312 -19.3774,7.23155 -43.0609,15.06318 l -43.06087,14.23933 -12.29216,37.81823 c -6.76068,20.80002 -12.29215,39.31685 -12.29215,41.14851 0,1.83165 -1.13689,4.03292 -2.52642,4.89169 -1.38953,0.85878 -7.5697,-14.88225 -13.73372,-34.98006 z"
     id="path3417"
     inkscape:connector-curvature="0" />
  <path
     style="fill:#da9737;fill-opacity:1"
     d="m 305.90655,200.04405 c -14.90024,-46.11933 -13.30769,-44.64137 -64.31446,-59.68695 -19.10971,-5.63683 -34.74492,-11.12971 -34.74492,-12.2064 0,-1.07668 18.50297,-7.60173 41.1177,-14.50011 22.61474,-6.89838 42.0096,-13.49537 43.09969,-14.659994 1.0901,-1.164621 6.23423,-16.254953 11.4314,-33.534071 15.14691,-50.359087 15.58449,-51.538391 18.14299,-48.896357 1.34192,1.385726 7.98362,20.638943 14.75935,42.784926 6.77572,22.145983 12.60119,40.469643 12.94549,40.719236 0.3443,0.2496 19.84691,6.26413 43.33914,13.36561 23.49223,7.10149 41.66896,13.83525 40.39275,14.96392 -1.27622,1.12867 -20.33758,7.57851 -42.35857,14.33299 -22.02099,6.75446 -40.49291,12.73559 -41.0487,13.29138 -0.55579,0.55579 -6.42392,18.36222 -13.04029,39.56984 -6.61636,21.20762 -13.16467,39.69423 -14.55178,41.08135 -1.38712,1.38712 -8.21352,-15.0943 -15.16979,-36.62537 z"
     id="path3419"
     inkscape:connector-curvature="0" />
</svg>
